<svg id="Calque_1" data-name="Calque 1" xmlns="http://www.w3.org/2000/svg" viewBox="0 0 666.62 890.16"><defs><style>.cls-1{fill:#fff;}</style></defs><path class="cls-1" d="M333.31,666.62c-15.66,0-27.6-13.31-38.14-25-6.73-7.51-14.36-16-19.79-17.09-5.85-1.15-16.45,3.92-25.79,8.39-14.67,7-29.83,14.27-43.87,8.45-14.29-5.93-20.17-22.68-25.37-37.47-3.38-9.62-7.22-20.53-12-23.71s-16.46-2.62-26.73-2.07c-16.31.87-33.2,1.76-44-9.07s-9.94-27.72-9.07-44c.54-10.27,1.16-21.9-2.08-26.74s-14.08-8.57-23.71-12C48,481.07,31.23,475.18,25.3,460.9c-5.82-14,1.44-29.2,8.45-43.87,4.47-9.35,9.54-19.94,8.38-25.8-1.07-5.41-9.57-13-17.08-19.78C13.31,360.91,0,349,0,333.31s13.31-27.6,25.05-38.14c7.5-6.73,16-14.36,17.08-19.79,1.16-5.85-3.91-16.45-8.38-25.79-7-14.67-14.27-29.83-8.45-43.87,5.93-14.29,22.68-20.17,37.47-25.37,9.62-3.38,20.53-7.22,23.71-12s2.61-16.46,2.07-26.73c-.87-16.32-1.76-33.2,9.07-44s27.72-9.94,44-9.07c10.27.54,21.9,1.16,26.73-2.08s8.58-14.08,12-23.71c5.2-14.78,11.09-31.53,25.37-37.46,14-5.82,29.2,1.44,43.87,8.45,9.34,4.47,19.94,9.54,25.79,8.38,5.42-1.07,13.05-9.57,19.79-17.08C305.7,13.31,317.65,0,333.31,0s27.6,13.31,38.14,25.05c6.73,7.5,14.36,16,19.79,17.08,5.85,1.15,16.44-3.91,25.79-8.38,14.67-7,29.83-14.27,43.87-8.45,14.28,5.93,20.17,22.68,25.37,37.47,3.38,9.62,7.21,20.53,12,23.71s16.47,2.61,26.73,2.07c16.33-.87,33.2-1.77,44,9.07s9.94,27.72,9.07,44c-.54,10.27-1.16,21.9,2.08,26.74s14.08,8.57,23.7,11.95c14.79,5.2,31.54,11.09,37.47,25.37,5.82,14-1.44,29.2-8.45,43.87-4.47,9.34-9.54,19.94-8.38,25.79,1.07,5.42,9.57,13.05,17.07,19.79,11.75,10.53,25.06,22.48,25.06,38.14s-13.31,27.6-25,38.14c-7.51,6.73-16,14.36-17.09,19.79-1.15,5.85,3.92,16.44,8.39,25.79,7,14.67,14.27,29.83,8.45,43.87-5.93,14.28-22.68,20.17-37.47,25.37-9.62,3.38-20.53,7.21-23.71,12s-2.62,16.46-2.07,26.72c.87,16.33,1.76,33.21-9.07,44s-27.72,9.94-44,9.07c-10.26-.54-21.89-1.16-26.73,2.08s-8.57,14.08-12,23.7c-5.2,14.79-11.09,31.54-25.37,37.47-14,5.81-29.2-1.44-43.87-8.45-9.35-4.47-19.93-9.54-25.8-8.38-5.41,1.07-13,9.57-19.78,17.08-10.54,11.74-22.48,25-38.14,25m-59.74-64.11a31.52,31.52,0,0,1,6,.57c12.57,2.49,22.34,13.38,31.8,23.92,7.12,7.93,16,17.8,21.9,17.8s14.79-9.87,21.91-17.8c9.45-10.54,19.22-21.43,31.78-23.92,13-2.56,26.43,3.88,39.44,10.11,9.38,4.48,21.05,10.06,26.11,8,5.28-2.2,9.64-14.59,13.14-24.55,4.73-13.46,9.62-27.39,20.4-34.6s25.69-6.5,40-5.73c10.47.55,23.49,1.25,27.46-2.72s3.27-17,2.72-27.46c-.77-14.33-1.55-29.15,5.72-40s21.15-15.67,34.61-20.4c10-3.5,22.35-7.86,24.55-13.14,2.09-5.05-3.5-16.73-8-26.11C607,413.43,600.52,400,603.08,387c2.49-12.57,13.38-22.35,23.92-31.8,7.93-7.12,17.8-16,17.8-21.9S634.93,318.52,627,311.4c-10.53-9.45-21.42-19.22-23.91-31.79-2.56-13,3.88-26.42,10.11-39.43,4.48-9.38,10.07-21.06,8-26.11-2.2-5.28-14.59-9.64-24.55-13.14-13.46-4.73-27.39-9.62-34.6-20.4s-6.49-25.69-5.73-40c.55-10.47,1.25-23.5-2.72-27.46s-17-3.27-27.46-2.72c-14.33.77-29.15,1.55-40-5.73S470.42,83.46,465.69,70c-3.5-10-7.86-22.35-13.14-24.55-5.05-2.09-16.72,3.49-26.11,8-13,6.23-26.47,12.66-39.43,10.1-12.57-2.48-22.35-13.38-31.8-23.91-7.12-7.93-16-17.81-21.9-17.81s-14.79,9.88-21.91,17.81C302,50.16,292.18,61.05,279.61,63.53c-13,2.57-26.42-3.87-39.43-10.1-9.39-4.49-21.06-10.07-26.11-8C208.79,47.65,204.43,60,200.93,70c-4.73,13.46-9.62,27.38-20.4,34.6s-25.69,6.49-40,5.73c-10.47-.56-23.5-1.25-27.46,2.72s-3.27,17-2.72,27.46c.76,14.33,1.55,29.14-5.73,40S83.46,196.2,70,200.93c-10,3.5-22.35,7.86-24.55,13.14-2.09,5.05,3.49,16.73,8,26.11,6.23,13,12.67,26.47,10.1,39.43-2.48,12.57-13.38,22.34-23.91,31.8-7.93,7.12-17.81,16-17.81,21.9s9.88,14.79,17.81,21.91c10.54,9.45,21.43,19.22,23.91,31.78,2.57,13-3.87,26.43-10.1,39.44-4.49,9.38-10.07,21.06-8,26.11,2.2,5.28,14.59,9.64,24.55,13.14,13.46,4.73,27.38,9.62,34.6,20.4s6.49,25.69,5.73,40c-.56,10.47-1.25,23.5,2.72,27.46s17,3.27,27.46,2.72c14.33-.76,29.15-1.55,40,5.72s15.67,21.15,20.4,34.61c3.5,10,7.86,22.35,13.14,24.55,5.05,2.09,16.73-3.5,26.11-8,11-5.27,22.32-10.68,33.39-10.68"/><path class="cls-1" d="M333.31,534.13c-110.73,0-200.82-90.09-200.82-200.82s90.09-200.82,200.82-200.82,200.82,90.09,200.82,200.82S444,534.13,333.31,534.13m0-379.82c-98.7,0-179,80.3-179,179s80.3,179,179,179,179-80.3,179-179-80.3-179-179-179"/><path class="cls-1" d="M229.74,890.16a29.48,29.48,0,0,1-26.51-16.26L162.08,794a8.1,8.1,0,0,0-9.26-4.16L74.48,810a30,30,0,0,1-33.36-44.06l118-203,18.86,11-118,203a8.14,8.14,0,0,0,9.07,12l78.34-20.15A29.78,29.78,0,0,1,181.47,784l41.16,79.95a8.13,8.13,0,0,0,14.93-1.09l73.5-214.75,20.64,7.07L258.2,869.9A29.55,29.55,0,0,1,232,890.08c-.77,0-1.53.08-2.29.08"/><path class="cls-1" d="M436.88,890.16c-.75,0-1.52,0-2.29-.08a29.54,29.54,0,0,1-26.16-20.17L334.92,655.14l20.64-7.07,73.5,214.77A8.13,8.13,0,0,0,444,863.92L485.15,784a29.79,29.79,0,0,1,34.08-15.3l78.35,20.16a8.14,8.14,0,0,0,9-12l-118-203,18.86-11,118,203A30,30,0,0,1,592.15,810L513.8,789.79a8.11,8.11,0,0,0-9.26,4.17L463.39,873.9a29.47,29.47,0,0,1-26.51,16.26"/><path class="cls-1" d="M308.29,401.55a19.34,19.34,0,0,1-13.68-5.66L241,342.25a19.35,19.35,0,1,1,27.36-27.36l40,40L387.18,276a19.35,19.35,0,0,1,27.36,27.36L322,395.89a19.34,19.34,0,0,1-13.68,5.66"/></svg>