<svg id="Calque_1" data-name="Calque 1" xmlns="http://www.w3.org/2000/svg" viewBox="0 0 649.35 664.18"><defs><style>.cls-1{fill:#fff;}</style></defs><path class="cls-1" d="M151.58,170.51h0a28.82,28.82,0,0,1-28.23,25.62,28.82,28.82,0,0,1-26.69-25.5H95.47c-2.13,0-6.28-6.29-6.76-12.93a31,31,0,0,1,0-12.93h0c.83,0,2,.95,3.09,2.61l1.3,1.78V147a23.93,23.93,0,0,1-.83-7,33.32,33.32,0,0,1,31.08-34.75A33.33,33.33,0,0,1,154.79,140a23.88,23.88,0,0,1-1.07,6.77v2.13l1.3-1.78c1.07-1.66,2.26-2.61,3.09-2.61h0a31,31,0,0,1,0,12.93c0,6.65-4.51,12.93-6.88,12.93" transform="translate(-9.23 -105.27)"/><path class="cls-1" d="M51.7,217.84l41.16-17.67h1.19l22,32.74v-1.07L118.84,212l-4.62-12.69v-1.43a23,23,0,0,0,19.33,0v1.43L127.86,212l2.61,19.69,21.11-31.55h.72l41.28,17.55L204,287.36H41.14Z" transform="translate(-9.23 -105.27)"/><path class="cls-1" d="M529.52,572.53a31.56,31.56,0,0,1,62.76-6.69,32.52,32.52,0,0,1,0,6.69,21.82,21.82,0,0,1-1.07,6.76l-.6,2,1.31-1.78C593.11,578,594.17,577,595,577h0c1,.83,1.07,5.1,0,12.81s-4.5,13-6.76,13h0v.59a26.81,26.81,0,0,1-53.5,0v-.59h0a.76.76,0,0,1-.59,0c-2.14,0-6.17-6.29-6.64-13a28.85,28.85,0,0,1,0-12.81h0c.71,0,1.89,1,3.08,2.49l1.19,1.78-.6-1.54a25.85,25.85,0,0,1-1.06-6.77" transform="translate(-9.23 -105.27)"/><path class="cls-1" d="M530.35,632.67h1.19l21.83,32.74v-1.18L556,644.65l-4.75-12.81v-1.42a24.82,24.82,0,0,0,9.73,2,25.26,25.26,0,0,0,9.73-2v1.42l-4.63,12.81,2.61,19.7,20.88-31.44h.71l40.92,18,10.44,69.52H478.75l10.44-69.52Z" transform="translate(-9.23 -105.27)"/><path class="cls-1" d="M339.13,649.16c108.1-1.31,194.67-90,193.36-198.1s-90-194.67-198.11-193.36h-2.6c-108.13-3-198.25,82.12-201.3,190.25S212.6,646.19,320.72,649.24q6.72.19,13.43-.08h5M488.72,540.5H440.08a299.78,299.78,0,0,0,11.86-77.82h59.31a172.87,172.87,0,0,1-23,77.82m-22.42-205H428.1a176,176,0,0,0-29.78-46.15,176.83,176.83,0,0,1,67.5,45.91M194.41,562h41.75a182.89,182.89,0,0,0,34,55.52A179,179,0,0,1,194.41,562m51.12-20.28a271.92,271.92,0,0,1-14-77.7h92.64v77.82Zm-14.11-97.63a267.87,267.87,0,0,1,16.72-87.55h75.45v87.43ZM419.2,355.68A263.54,263.54,0,0,1,436.88,443H344.23V355.57ZM437,463a273,273,0,0,1-13.29,77.82h-79v-77.7Zm-21,97.75c-17.44,38.55-42.82,62.87-71.18,67.73V561.14Zm-91.34,0v67.26c-28.12-4.51-53.74-28.59-71.18-66.91Zm-1.43-282.45v57.42H257C274.12,303,297.73,282.37,323,278m20.52,57.3V277.87c25.38,4.15,49.11,24.67,66.55,57.05ZM180.53,542a172.89,172.89,0,0,1-23.73-77.7h59.32A302.81,302.81,0,0,0,228.81,542ZM156.8,444.42a173.82,173.82,0,0,1,29.07-87.55h45.79a301.36,301.36,0,0,0-15.07,87.55ZM268.67,290.2a175.23,175.23,0,0,0-29.3,46.39H201.52A178.62,178.62,0,0,1,268.67,290m213.52,65.24a173,173,0,0,1,30,87.19H452.89a300.47,300.47,0,0,0-16.61-86.83Zm-81.85,261a182.72,182.72,0,0,0,33.45-56.11h41.76a177.85,177.85,0,0,1-75.21,56.35" transform="translate(-9.23 -105.27)"/><path class="cls-1" d="M21.69,391.39a25.36,25.36,0,0,1,.71-3.68,12.34,12.34,0,0,0,0-2.25l-13.17-3L16.94,375c2.61-2.37,5.46-4.74,8.19-7,5.58-4.51,11-8.9,16.37-12.93,2.14,6.64,4.27,13.05,6.64,19.34,1.07,3.08,2.14,6.17,3.44,9.25l4.16,9L42.09,390a15.14,15.14,0,0,0,0,2.13c-.29,1.14-.53,2.28-.71,3.44a102,102,0,0,0-2.25,11.86,305.16,305.16,0,0,0-2.61,71.77,299,299,0,0,0,26.1,98,295.73,295.73,0,0,0,68.8,94,300.84,300.84,0,0,0,100,60.61,310.78,310.78,0,0,0,100.83,18.39,317.56,317.56,0,0,0,72.36-8.3c8.54-1.9,15.07-4.27,19.57-5.34l7-2.14,6.29,18.39-7.35,2.14c-4.87,1.3-11.87,3.79-21,5.81a331.45,331.45,0,0,1-77,8.78,327.55,327.55,0,0,1-107.47-19.58A313.64,313.64,0,0,1,44.82,584.51a311.83,311.83,0,0,1-25.5-180.9C19.91,399,21,395,21.69,391.75" transform="translate(-9.23 -105.27)"/><path class="cls-1" d="M619.91,533.86c-1.06-3.09-2.13-6.17-3.32-9.25l-4.27-9,13.76,3.08,3.56-17.08a307.07,307.07,0,0,0,2.73-72.12,293.86,293.86,0,0,0-94.9-192.89A301.53,301.53,0,0,0,437,176.44a310.63,310.63,0,0,0-101.31-18.27,324.46,324.46,0,0,0-72.6,8.54c-8.54,2-15.18,4.39-19.69,5.58l-7,2.14L230,156l7.48-2.14c4.86-1.3,11.86-3.91,21-6.05a346.25,346.25,0,0,1,77.23-9,334.06,334.06,0,0,1,108.07,19.33,320.37,320.37,0,0,1,106.76,64.89,315.41,315.41,0,0,1,73.67,100.48,319,319,0,0,1,27.52,105,325.88,325.88,0,0,1-3,76.87c-2.49,11.86-3.8,18.15-3.8,18.15l13.65,3L650.88,534l-8.31,7c-5.45,4.5-10.91,8.77-16.37,12.93-2-6.65-4.27-13.17-6.52-19.46" transform="translate(-9.23 -105.27)"/></svg>