<svg id="Calque_1" data-name="Calque 1" xmlns="http://www.w3.org/2000/svg" viewBox="0 0 54.76 55.93"><defs><style>.cls-1{fill:#fff;}</style></defs><path class="cls-1" d="M12,5.5h0l0,0v0A2.43,2.43,0,0,1,9.62,7.66,2.43,2.43,0,0,1,7.37,5.51v0l0,0H7.27c-.18,0-.53-.53-.57-1.09a2.61,2.61,0,0,1,0-1.09h0c.07,0,.17.08.26.22l.11.15,0-.18A2,2,0,0,1,7,2.93,2.81,2.81,0,0,1,9.62,0a2.81,2.81,0,0,1,2.65,2.93,2,2,0,0,1-.09.57l0,.18.11-.15c.09-.14.19-.22.26-.22h0a2.61,2.61,0,0,1,0,1.09c0,.56-.38,1.09-.58,1.09"/><path class="cls-1" d="M3.58,9.49,7.05,8l0,0,.1,0L9,10.76l0-.09L9.24,9,8.85,7.93l0-.12a1.94,1.94,0,0,0,1.63,0l0,.12L10,9l.22,1.66L12,8l.06,0,0,0,3.48,1.48.88,5.87H2.69Z"/><path class="cls-1" d="M43.86,39.39a2.66,2.66,0,1,1,5.29,0,1.81,1.81,0,0,1-.09.57l-.05.17.11-.15c.1-.13.19-.21.26-.21h0c.08.07.09.43,0,1.08s-.38,1.1-.57,1.1l0,0,0,0V42a2.26,2.26,0,0,1-4.51,0v-.05l0,0a.06.06,0,0,1-.05,0c-.18,0-.52-.53-.56-1.1a2.44,2.44,0,0,1,0-1.08h0c.06,0,.16.08.26.21l.1.15L44,40a2.15,2.15,0,0,1-.09-.57"/><path class="cls-1" d="M43.93,44.46l0,0,.1,0,1.84,2.76v-.1l.22-1.65-.4-1.08,0-.12a2.08,2.08,0,0,0,.82.17,2.11,2.11,0,0,0,.82-.17l0,.12-.39,1.08.22,1.66,1.76-2.65.06,0,0,0L52.43,46l.88,5.86H39.58L40.46,46Z"/><path class="cls-1" d="M27.81,45.85a16.5,16.5,0,0,0-.4-33h-.22a16.51,16.51,0,1,0,.2,33h.42m12.61-9.16-4.1,0a25.28,25.28,0,0,0,1-6.56l5,0a14.58,14.58,0,0,1-1.94,6.56M38.49,19.41l-3.18,0a14.82,14.82,0,0,0-2.51-3.89,14.91,14.91,0,0,1,5.69,3.87M15.61,38.5l3.52,0A15.41,15.41,0,0,0,22,43.18a15.09,15.09,0,0,1-6.39-4.68m4.31-1.71a22.92,22.92,0,0,1-1.18-6.55l7.81,0,0,6.56Zm-1.19-8.23a22.57,22.57,0,0,1,1.41-7.38l6.36,0,0,7.37Zm15.83-7.45a22.21,22.21,0,0,1,1.49,7.36l-7.81,0,0-7.37Zm1.5,9.05a23,23,0,0,1-1.12,6.56l-6.66,0,0-6.55ZM34.29,38.4c-1.47,3.25-3.61,5.3-6,5.71l0-5.68Zm-7.7,0,0,5.67c-2.37-.38-4.53-2.41-6-5.64Zm-.12-23.81,0,4.84-5.58,0c1.44-2.76,3.43-4.5,5.56-4.87m1.73,4.83,0-4.84c2.14.35,4.14,2.08,5.61,4.81ZM14.44,36.82a14.58,14.58,0,0,1-2-6.55l5,0a25.57,25.57,0,0,0,1.07,6.55Zm-2-8.23a14.65,14.65,0,0,1,2.45-7.38l3.86,0a25.41,25.41,0,0,0-1.27,7.38Zm9.43-13a14.78,14.78,0,0,0-2.47,3.91l-3.19,0a15.06,15.06,0,0,1,5.66-3.93m18,5.5a14.58,14.58,0,0,1,2.53,7.35l-5,0A25.35,25.35,0,0,0,36,21.1Zm-6.9,22a15.42,15.42,0,0,0,2.82-4.73l3.52,0a15,15,0,0,1-6.34,4.75"/><path class="cls-1" d="M1.05,24.12c0-.12.05-.22.06-.31s0-.19,0-.19L0,23.37l.65-.63c.22-.2.46-.4.69-.59.47-.38.93-.75,1.38-1.09.18.56.36,1.1.56,1.63.09.26.18.52.29.78l.35.76L2.77,24a1.32,1.32,0,0,0,0,.18,2.84,2.84,0,0,0-.06.29,8.58,8.58,0,0,0-.19,1,25.75,25.75,0,0,0-.22,6.05,25.21,25.21,0,0,0,2.2,8.26,24.93,24.93,0,0,0,5.8,7.92,25.37,25.37,0,0,0,8.43,5.11,26.23,26.23,0,0,0,8.5,1.55,26.77,26.77,0,0,0,6.1-.7c.72-.16,1.27-.36,1.65-.45l.59-.18.53,1.55-.62.18c-.41.11-1,.32-1.77.49a27.92,27.92,0,0,1-6.49.74,27.63,27.63,0,0,1-9.06-1.65,26.82,26.82,0,0,1-9-5.44A26.55,26.55,0,0,1,3,40.4,26.29,26.29,0,0,1,.85,25.15c.05-.39.14-.73.2-1"/><path class="cls-1" d="M51.48,36.13c-.09-.26-.18-.52-.28-.78l-.36-.76,1.16.26.3-1.44a25.9,25.9,0,0,0,.23-6.08,24.77,24.77,0,0,0-8-16.26A25.4,25.4,0,0,0,36.06,6a26.16,26.16,0,0,0-8.54-1.54,27.3,27.3,0,0,0-6.12.72c-.72.17-1.28.37-1.66.47l-.59.18-.54-1.55.63-.18c.41-.11,1-.33,1.77-.51a29.16,29.16,0,0,1,6.51-.76,28.16,28.16,0,0,1,9.11,1.63,27,27,0,0,1,9,5.47,26.58,26.58,0,0,1,6.21,8.47,26.88,26.88,0,0,1,2.32,8.85,27.46,27.46,0,0,1-.25,6.48c-.21,1-.32,1.53-.32,1.53l1.15.25-.65.63-.7.59c-.46.38-.92.74-1.38,1.09-.17-.56-.36-1.11-.55-1.64"/></svg>