<?xml version="1.0" encoding="utf-8"?>
<!-- Generator: Adobe Illustrator 25.0.1, SVG Export Plug-In . SVG Version: 6.00 Build 0)  -->
<svg version="1.1" id="Calque_1" xmlns="http://www.w3.org/2000/svg" xmlns:xlink="http://www.w3.org/1999/xlink" x="0px" y="0px"
	 viewBox="0 0 666.6 890.2" style="enable-background:new 0 0 666.6 890.2;" xml:space="preserve">
<style type="text/css">
	.st0{fill:#FFFFFF;}
</style>
<path class="st0" d="M333.3,666.6c-15.7,0-27.6-13.3-38.1-25c-6.7-7.5-14.4-16-19.8-17.1c-5.9-1.2-16.5,3.9-25.8,8.4
	c-14.7,7-29.8,14.3-43.9,8.5c-14.3-5.9-20.2-22.7-25.4-37.5c-3.4-9.6-7.2-20.5-12-23.7s-16.5-2.6-26.7-2.1
	c-16.3,0.9-33.2,1.8-44-9.1s-9.9-27.7-9.1-44c0.5-10.3,1.2-21.9-2.1-26.7s-14.1-8.6-23.7-12c-14.8-5.2-31.5-11.1-37.5-25.4
	c-5.8-14,1.4-29.2,8.5-43.9c4.5-9.4,9.5-19.9,8.4-25.8c-1.1-5.4-9.6-13-17.1-19.8C13.3,360.9,0,349,0,333.3s13.3-27.6,25-38.1
	c7.5-6.7,16-14.4,17.1-19.8c1.2-5.9-3.9-16.5-8.4-25.8c-7-14.7-14.3-29.8-8.5-43.9c5.9-14.3,22.7-20.2,37.5-25.4
	c9.6-3.4,20.5-7.2,23.7-12s2.6-16.5,2.1-26.7c-0.9-16.3-1.8-33.2,9.1-44s27.7-9.9,44-9.1c10.3,0.5,21.9,1.2,26.7-2.1
	s8.6-14.1,12-23.7c5.2-14.8,11.1-31.5,25.4-37.5c14-5.8,29.2,1.4,43.9,8.4c9.3,4.5,19.9,9.5,25.8,8.4c5.4-1.1,13-9.6,19.8-17.1
	c10.5-11.7,22.5-25,38.1-25s27.6,13.3,38.1,25c6.7,7.5,14.4,16,19.8,17.1c5.9,1.2,16.4-3.9,25.8-8.4c14.7-7,29.8-14.3,43.9-8.4
	c14.3,5.9,20.2,22.7,25.4,37.5c3.4,9.6,7.2,20.5,12,23.7s16.5,2.6,26.7,2.1c16.3-0.9,33.2-1.8,44,9.1s9.9,27.7,9.1,44
	c-0.5,10.3-1.2,21.9,2.1,26.7s14.1,8.6,23.7,11.9c14.8,5.2,31.5,11.1,37.5,25.4c5.8,14-1.4,29.2-8.5,43.9
	c-4.5,9.3-9.5,19.9-8.4,25.8c1.1,5.4,9.6,13,17.1,19.8c11.8,10.5,25.1,22.5,25.1,38.1s-13.3,27.6-25,38.1
	c-7.5,6.7-16,14.4-17.1,19.8c-1.2,5.9,3.9,16.4,8.4,25.8c7,14.7,14.3,29.8,8.5,43.9c-5.9,14.3-22.7,20.2-37.5,25.4
	c-9.6,3.4-20.5,7.2-23.7,12s-2.6,16.5-2.1,26.7c0.9,16.3,1.8,33.2-9.1,44s-27.7,9.9-44,9.1c-10.3-0.5-21.9-1.2-26.7,2.1
	s-8.6,14.1-12,23.7c-5.2,14.8-11.1,31.5-25.4,37.5c-14,5.8-29.2-1.4-43.9-8.5c-9.4-4.5-19.9-9.5-25.8-8.4c-5.4,1.1-13,9.6-19.8,17.1
	C361,653.3,349,666.5,333.3,666.6 M273.6,602.4c2,0,4,0.2,6,0.6c12.6,2.5,22.3,13.4,31.8,23.9c7.1,7.9,16,17.8,21.9,17.8
	s14.8-9.9,21.9-17.8c9.5-10.5,19.2-21.4,31.8-23.9c13-2.6,26.4,3.9,39.4,10.1c9.4,4.5,21,10.1,26.1,8c5.3-2.2,9.6-14.6,13.1-24.5
	c4.7-13.5,9.6-27.4,20.4-34.6s25.7-6.5,40-5.7c10.5,0.5,23.5,1.2,27.5-2.7s3.3-17,2.7-27.5c-0.8-14.3-1.5-29.1,5.7-40
	s21.2-15.7,34.6-20.4c10-3.5,22.3-7.9,24.5-13.1c2.1-5-3.5-16.7-8-26.1c-6.2-13-12.6-26.4-10.1-39.4c2.5-12.6,13.4-22.4,23.9-31.8
	c7.9-7.1,17.8-16,17.8-21.9s-9.9-14.8-17.8-21.9c-10.5-9.5-21.4-19.2-23.9-31.8c-2.6-13,3.9-26.4,10.1-39.4
	c4.5-9.4,10.1-21.1,8-26.1c-2.2-5.3-14.6-9.6-24.5-13.1c-13.5-4.7-27.4-9.6-34.6-20.4s-6.5-25.7-5.7-40c0.5-10.5,1.2-23.5-2.7-27.5
	s-17-3.3-27.5-2.7c-14.3,0.8-29.1,1.6-40-5.7S470.4,83.5,465.7,70c-3.5-10-7.9-22.3-13.1-24.5c-5-2.1-16.7,3.5-26.1,8
	c-13,6.2-26.5,12.7-39.4,10.1c-12.6-2.5-22.4-13.4-31.8-23.9c-7.1-7.9-16-17.8-21.9-17.8s-14.8,9.9-21.9,17.8
	C302,50.2,292.2,61,279.6,63.5c-13,2.6-26.4-3.9-39.4-10.1c-9.4-4.5-21.1-10.1-26.1-8c-5.3,2.2-9.6,14.6-13.1,24.6
	c-4.7,13.5-9.6,27.4-20.4,34.6s-25.7,6.5-40,5.7c-10.5-0.6-23.5-1.2-27.5,2.7s-3.3,17-2.7,27.5c0.8,14.3,1.6,29.1-5.7,40
	S83.5,196.2,70,200.9c-10,3.5-22.3,7.9-24.5,13.1c-2.1,5.1,3.5,16.7,8,26.1c6.2,13,12.7,26.5,10.1,39.4
	c-2.5,12.6-13.4,22.3-23.9,31.8c-7.9,7.1-17.8,16-17.8,21.9s9.9,14.8,17.8,21.9c10.5,9.5,21.4,19.2,23.9,31.8
	c2.6,13-3.9,26.4-10.1,39.4c-4.5,9.4-10.1,21.1-8,26.1c2.2,5.3,14.6,9.6,24.5,13.1c13.5,4.7,27.4,9.6,34.6,20.4s6.5,25.7,5.7,40
	c-0.6,10.5-1.2,23.5,2.7,27.5s17,3.3,27.5,2.7c14.3-0.8,29.1-1.5,40,5.7s15.7,21.2,20.4,34.6c3.5,10,7.9,22.3,13.1,24.5
	c5.1,2.1,16.7-3.5,26.1-8C251.2,607.9,262.5,602.5,273.6,602.4"/>
<path class="st0" d="M333.3,534.1c-110.7,0-200.8-90.1-200.8-200.8s90.1-200.8,200.8-200.8s200.8,90.1,200.8,200.8
	S444,534.1,333.3,534.1 M333.3,154.3c-98.7,0-179,80.3-179,179s80.3,179,179,179s179-80.3,179-179S432,154.3,333.3,154.3"/>
<path class="st0" d="M229.7,890.2c-11.2,0.1-21.5-6.2-26.5-16.3L162.1,794c-1.7-3.4-5.6-5.1-9.3-4.2L74.5,810
	c-16.1,4.1-32.4-5.7-36.4-21.7c-1.9-7.6-0.8-15.6,3.1-22.3l118-203l18.9,11l-118,203c-2.3,3.9-1,8.9,2.9,11.1
	c1.9,1.1,4.1,1.4,6.2,0.9l78.3-20.2c13.5-3.6,27.7,2.8,34.1,15.2l41.2,80c2,4,6.9,5.6,10.9,3.5c1.9-1,3.3-2.6,4-4.6l73.5-214.8
	l20.6,7.1l-73.5,214.7c-3.8,11.4-14.2,19.4-26.2,20.2C231.2,890.1,230.5,890.2,229.7,890.2"/>
<path class="st0" d="M436.9,890.2c-0.8,0-1.5,0-2.3-0.1c-12-0.8-22.4-8.7-26.2-20.2l-73.5-214.8l20.6-7.1l73.5,214.8
	c1.4,4.3,6.1,6.5,10.3,5.1c2-0.7,3.7-2.1,4.6-4l41.1-79.9c6.4-12.5,20.5-18.8,34.1-15.3l78.3,20.2c4.4,1.1,8.8-1.6,9.9-5.9
	c0.5-2.1,0.2-4.2-0.9-6.1l-118-203l18.9-11l118,203c8.3,14.3,3.4,32.7-10.9,41c-6.8,3.9-14.8,5.1-22.4,3.1l-78.4-20.2
	c-3.7-1-7.5,0.8-9.3,4.2l-41.1,79.9C458.4,883.9,448.1,890.2,436.9,890.2"/>
<path class="st0" d="M308.3,401.5c-5.1,0-10.1-2-13.7-5.7L241,342.2c-7.7-7.4-7.9-19.7-0.5-27.4c7.4-7.7,19.7-7.9,27.4-0.5
	c0.2,0.2,0.4,0.3,0.5,0.5l40,40l78.8-78.9c7.7-7.4,19.9-7.2,27.4,0.5c7.2,7.5,7.2,19.3,0,26.8L322,395.9
	C318.4,399.5,313.5,401.6,308.3,401.5"/>
</svg>
