<svg id="Calque_1" data-name="Calque 1" xmlns="http://www.w3.org/2000/svg" viewBox="0 0 69 68"><defs><style>.cls-1{fill:#73fdff;}</style></defs><path class="cls-1" d="M27,25.78h5.5a.84.84,0,0,1,.84.85V32.2a.84.84,0,0,1-.84.84H26.35a.85.85,0,0,1-.85-.88,37.51,37.51,0,0,1,.63-5.7.86.86,0,0,1,.84-.68m0,16.07h5.5a.84.84,0,0,0,.84-.84V35.44a.83.83,0,0,0-.84-.84H26.35a.85.85,0,0,0-.85.87,37.36,37.36,0,0,0,.63,5.7.85.85,0,0,0,.84.68m6.34-18.46V16.1a.84.84,0,0,0-1.24-.75c-2.12,1.12-3.93,4-5.12,7.8a.84.84,0,0,0,.81,1.08h4.71a.84.84,0,0,0,.84-.84M44.54,41.85h6.2a.83.83,0,0,0,.78-.5A18.79,18.79,0,0,0,53,35.5a.84.84,0,0,0-.85-.9H45.08a.83.83,0,0,0-.83.82,41.91,41.91,0,0,1-.54,5.45.84.84,0,0,0,.83,1m-.83-15.08a41.91,41.91,0,0,1,.54,5.45.83.83,0,0,0,.83.82h7.07a.84.84,0,0,0,.85-.9,19.06,19.06,0,0,0-1.47-5.85.87.87,0,0,0-.79-.51h-6.2a.84.84,0,0,0-.83,1m.09-2.54h5.13a.84.84,0,0,0,.69-1.33,19,19,0,0,0-8.11-6.56.85.85,0,0,0-1,1.22A21.85,21.85,0,0,1,43,23.62a.81.81,0,0,0,.78.61M33.31,51.54V44.25a.83.83,0,0,0-.84-.84H27.76A.83.83,0,0,0,27,44.48c1.19,3.85,3,6.69,5.12,7.81a.84.84,0,0,0,1.24-.75m7.92-28.39c-1.19-3.84-3-6.68-5.11-7.8a.85.85,0,0,0-1.25.75v7.29a.85.85,0,0,0,.84.84h4.71a.84.84,0,0,0,.81-1.08m.61,11.45H35.71a.84.84,0,0,0-.84.84V41a.85.85,0,0,0,.84.84h5.5a.85.85,0,0,0,.84-.68,38.64,38.64,0,0,0,.64-5.7.85.85,0,0,0-.85-.87m-26.66.9a18.79,18.79,0,0,0,1.48,5.85.83.83,0,0,0,.78.5h6.2a.84.84,0,0,0,.83-1,40.28,40.28,0,0,1-.53-5.45.85.85,0,0,0-.84-.82H16a.84.84,0,0,0-.85.9m9.2,7.91H19.26a.85.85,0,0,0-.7,1.33,19.09,19.09,0,0,0,8.11,6.56.85.85,0,0,0,1-1.22A22.23,22.23,0,0,1,25.16,44a.8.8,0,0,0-.78-.6M43,44a22.22,22.22,0,0,1-2.55,6.07.84.84,0,0,0,1,1.22,19.09,19.09,0,0,0,8.11-6.56.85.85,0,0,0-.69-1.33H43.8A.81.81,0,0,0,43,44M25.16,23.62a22.15,22.15,0,0,1,2.56-6.06.85.85,0,0,0-1-1.22,19,19,0,0,0-8.11,6.56.85.85,0,0,0,.7,1.33h5.12a.8.8,0,0,0,.78-.61m16.05,2.16h-5.5a.85.85,0,0,0-.84.85V32.2a.85.85,0,0,0,.84.84h6.13a.85.85,0,0,0,.85-.88,38.79,38.79,0,0,0-.64-5.7.86.86,0,0,0-.84-.68m-24.55.51a18.79,18.79,0,0,0-1.48,5.85A.84.84,0,0,0,16,33H23.1a.85.85,0,0,0,.84-.82,40.28,40.28,0,0,1,.53-5.45.84.84,0,0,0-.83-1h-6.2a.84.84,0,0,0-.78.51m18.21,18v7.29a.85.85,0,0,0,1.25.75c2.11-1.12,3.92-4,5.11-7.81a.83.83,0,0,0-.81-1.07H35.71a.84.84,0,0,0-.84.84"/></svg>