<svg width="13" height="13" viewBox="0 0 13 13" fill="none" xmlns="http://www.w3.org/2000/svg">
<path d="M10.5905 5.84968L8.38747 8.05304C8.26053 8.17992 8.26053 8.38571 8.38747 8.51265C8.50031 8.62543 8.67542 8.63797 8.80211 8.55022L8.84709 8.51265L11.6048 5.75491C11.7176 5.64209 11.7302 5.46697 11.6424 5.3403L11.6048 5.29529L8.84709 2.53757C8.72021 2.41065 8.51442 2.41065 8.38747 2.53757C8.27463 2.65039 8.26215 2.82552 8.3499 2.95218L8.38747 2.99719L10.5905 5.19968L6.5 5.2001C3.8604 5.2001 1.71079 7.29793 1.6275 9.9173L1.625 10.0751C1.625 10.2546 1.77051 10.4001 1.95 10.4001C2.12949 10.4001 2.275 10.2546 2.275 10.0751C2.275 7.79245 4.08525 5.93255 6.34847 5.85277L6.5 5.8501L10.5905 5.84968Z" fill="#262626"/>
</svg>
