<svg width="34" height="34" viewBox="0 0 34 34" fill="none" xmlns="http://www.w3.org/2000/svg">
<rect width="34" height="34" rx="5" fill="white"/>
<path d="M22.0469 6.10938C23.5967 6.10938 25.0831 6.72505 26.179 7.82097C27.2749 8.91689 27.8906 10.4033 27.8906 11.9531V22.0469C27.8906 23.5967 27.2749 25.0831 26.179 26.179C25.0831 27.2749 23.5967 27.8906 22.0469 27.8906H11.9531C10.4033 27.8906 8.91689 27.2749 7.82097 26.179C6.72505 25.0831 6.10938 23.5967 6.10938 22.0469V11.9531C6.10938 10.4033 6.72505 8.91689 7.82097 7.82097C8.91689 6.72505 10.4033 6.10938 11.9531 6.10938H22.0469ZM22.0469 3.98438H11.9531C9.84162 3.99068 7.8184 4.83227 6.32533 6.32533C4.83227 7.8184 3.99068 9.84162 3.98438 11.9531V22.0469C3.99068 24.1584 4.83227 26.1816 6.32533 27.6747C7.8184 29.1677 9.84162 30.0093 11.9531 30.0156H22.0469C24.1584 30.0093 26.1816 29.1677 27.6747 27.6747C29.1677 26.1816 30.0093 24.1584 30.0156 22.0469V11.9531C30.0093 9.84162 29.1677 7.8184 27.6747 6.32533C26.1816 4.83227 24.1584 3.99068 22.0469 3.98438Z" fill="#262626"/>
<path d="M23.9439 8.5C23.6429 8.5 23.3486 8.58927 23.0983 8.75651C22.848 8.92375 22.6529 9.16146 22.5377 9.43958C22.4225 9.71769 22.3924 10.0237 22.4511 10.319C22.5098 10.6142 22.6548 10.8854 22.8677 11.0983C23.0805 11.3111 23.3517 11.4561 23.647 11.5148C23.9422 11.5735 24.2482 11.5434 24.5264 11.4282C24.8045 11.313 25.0422 11.1179 25.2094 10.8676C25.3767 10.6173 25.4659 10.3231 25.4659 10.022C25.4659 9.82216 25.4266 9.62424 25.3501 9.43958C25.2736 9.25491 25.1615 9.08713 25.0201 8.94579C24.8788 8.80446 24.711 8.69235 24.5264 8.61586C24.3417 8.53937 24.1438 8.5 23.9439 8.5Z" fill="#262626"/>
<path d="M17.0716 12.3438C18.0007 12.3432 18.909 12.6183 19.6817 13.1341C20.4544 13.6499 21.0568 14.3834 21.4126 15.2416C21.7683 16.0998 21.8616 17.0443 21.6804 17.9556C21.4993 18.8668 21.052 19.7038 20.395 20.3608C19.7381 21.0177 18.9011 21.465 17.9898 21.6462C17.0786 21.8273 16.1341 21.7341 15.2759 21.3783C14.4177 21.0225 13.6842 20.4202 13.1684 19.6475C12.6526 18.8748 12.3775 17.9664 12.378 17.0374C12.3802 15.7932 12.8753 14.6006 13.7551 13.7208C14.6349 12.841 15.8275 12.3459 17.0716 12.3438ZM17.0716 10.2188C15.723 10.2214 14.4054 10.6237 13.2853 11.375C12.1653 12.1262 11.293 13.1926 10.7789 14.4394C10.2647 15.6862 10.1316 17.0575 10.3966 18.3799C10.6615 19.7023 11.3124 20.9164 12.2672 21.869C13.222 22.8215 14.4377 23.4696 15.7607 23.7315C17.0837 23.9933 18.4546 23.8571 19.7002 23.34C20.9458 22.8229 22.0102 21.9482 22.7588 20.8264C23.5074 19.7046 23.9067 18.386 23.9062 17.0374C23.9058 16.1407 23.7287 15.2529 23.3849 14.4247C23.0411 13.5966 22.5374 12.8443 21.9026 12.211C21.2679 11.5777 20.5144 11.0758 19.6855 10.7339C18.8565 10.3921 17.9683 10.217 17.0716 10.2188Z" fill="#262626"/>
</svg>
