<svg width="25" height="25" viewBox="0 0 25 25" fill="none" xmlns="http://www.w3.org/2000/svg">
<path d="M19.375 5C21.1009 5 22.5 6.39911 22.5 8.125V18.125C22.5 19.8509 21.1009 21.25 19.375 21.25H5.625C3.89911 21.25 2.5 19.8509 2.5 18.125V8.125C2.5 6.39911 3.89911 5 5.625 5H19.375ZM21.25 9.95125L12.8169 14.9137C12.6539 15.0096 12.4583 15.0256 12.2844 14.9616L12.1831 14.9137L3.75 9.95375V18.125C3.75 19.1605 4.58946 20 5.625 20H19.375C20.4105 20 21.25 19.1605 21.25 18.125V9.95125ZM19.375 6.25H5.625C4.58946 6.25 3.75 7.08946 3.75 8.125V8.5025L12.5 13.6499L21.25 8.50125V8.125C21.25 7.08946 20.4105 6.25 19.375 6.25Z" fill="white"/>
</svg>
