<svg width="25" height="25" viewBox="0 0 25 25" fill="none" xmlns="http://www.w3.org/2000/svg">
<path d="M8.73455 2.58237L7.83869 2.8524C6.20928 3.34355 5.01254 4.73502 4.7707 6.41957C4.39949 9.00548 5.22978 12.028 7.23034 15.4931C9.22669 18.9509 11.4241 21.1791 13.8431 22.1539C15.4301 22.7933 17.2442 22.449 18.4866 21.2725L19.1651 20.6299C20.0744 19.7688 20.2062 18.3675 19.4733 17.3519L17.7776 15.0018C17.3081 14.3509 16.4763 14.0711 15.7089 14.3058L13.1454 15.0895L13.0792 15.1025C12.7966 15.1438 12.145 14.5324 11.3323 13.1249C10.4821 11.6523 10.3059 10.7912 10.5407 10.5693L11.8449 9.3531C12.8223 8.44165 13.1111 7.0091 12.5631 5.79017L11.7363 3.95094C11.2214 2.80564 9.93683 2.21997 8.73455 2.58237ZM10.5962 4.46347L11.423 6.30269C11.7515 7.03353 11.5784 7.89244 10.9924 8.43892L9.68498 9.65807C8.8486 10.449 9.12563 11.8027 10.2498 13.7499C11.3075 15.5819 12.2725 16.4873 13.3094 16.3303L13.4648 16.297L16.0743 15.5011C16.3302 15.4229 16.6074 15.5163 16.7639 15.7331L18.4597 18.0833C18.8261 18.5911 18.7602 19.2918 18.3056 19.7223L17.6271 20.3649C16.7397 21.2053 15.4438 21.4511 14.3103 20.9944C12.1877 20.1391 10.1817 18.105 8.31287 14.8681C6.44024 11.6246 5.68236 8.86568 6.00801 6.59719C6.18075 5.39394 7.03558 4.40004 8.19944 4.04922L9.0953 3.77918C9.69644 3.59798 10.3387 3.89082 10.5962 4.46347Z" fill="white"/>
</svg>
