<svg width="34" height="34" viewBox="0 0 34 34" fill="none" xmlns="http://www.w3.org/2000/svg">
<g clip-path="url(#clip0_236_48)">
<rect width="34" height="34" rx="5" fill="white"/>
<path fill-rule="evenodd" clip-rule="evenodd" d="M18.5641 22.1479C22.3073 22.1479 24.8466 18.6644 24.8466 14.0015C24.8466 10.4766 21.921 7.19238 17.4757 7.19238C11.9437 7.19238 9.1543 11.2413 9.1543 14.6177C9.1543 16.6621 9.91194 18.4809 11.5387 19.1588C11.8052 19.2699 12.044 19.1624 12.1216 18.8613C12.1747 18.6526 12.303 18.1262 12.3588 17.9073C12.4369 17.6091 12.4068 17.5047 12.1916 17.2447C11.723 16.6795 11.4239 15.9491 11.4239 14.9134C11.4239 11.9099 13.6242 9.22095 17.1562 9.22095C20.282 9.22095 22.0008 11.1708 22.0008 13.7761C22.0008 17.2032 20.5152 20.0957 18.3091 20.0957C17.0906 20.0957 16.1796 19.0673 16.4713 17.8063C16.8206 16.3006 17.4994 14.6749 17.4994 13.588C17.4994 12.6155 16.9879 11.8034 15.9289 11.8034C14.6835 11.8034 13.6833 13.1189 13.6833 14.8804C13.6833 16.0022 14.0553 16.7612 14.0553 16.7612C14.0553 16.7612 12.7808 22.2731 12.557 23.2381C12.3541 24.1168 12.3237 25.0826 12.3523 25.8989C12.4375 26.6311 13.1468 27.2274 13.7621 26.4241C14.1947 25.7183 14.6598 24.8269 14.9004 23.9335C15.0439 23.4049 15.7198 20.6664 15.7198 20.6664C16.1248 21.4542 17.3072 22.1479 18.5641 22.1479Z" fill="#262626"/>
</g>
<defs>
<clipPath id="clip0_236_48">
<rect width="34" height="34" rx="5" fill="white"/>
</clipPath>
</defs>
</svg>
