<svg width="30" height="30" viewBox="0 0 30 30" fill="none" xmlns="http://www.w3.org/2000/svg">
<path d="M12.75 4.5C17.3064 4.5 21 8.19365 21 12.75C21 14.7582 20.2825 16.5989 19.0899 18.0294L25.2804 24.2196C25.5732 24.5126 25.5732 24.9874 25.2804 25.2804C25.02 25.5406 24.6159 25.5696 24.3236 25.3671L24.2196 25.2804L18.0294 19.0899C16.5989 20.2825 14.7582 21 12.75 21C8.19365 21 4.5 17.3064 4.5 12.75C4.5 8.19365 8.19365 4.5 12.75 4.5ZM12.75 6C9.02208 6 6 9.02208 6 12.75C6 16.478 9.02208 19.5 12.75 19.5C16.478 19.5 19.5 16.478 19.5 12.75C19.5 9.02208 16.478 6 12.75 6Z" fill="white"/>
</svg>
