<svg id="Calque_1" data-name="Calque 1" xmlns="http://www.w3.org/2000/svg" viewBox="0 0 77 81"><defs><style>.cls-1{fill:#73fdff;}</style></defs><path class="cls-1" d="M38.42,23.57A15,15,0,0,0,23.17,38.32a17.59,17.59,0,0,0,3.71,10.73c1,1.42,1.52,2.27,1.52,3.12a6.39,6.39,0,0,0,2.85,5.07c.05,1.13.21,3.9.21,3.9h0c0,.79.45,2.4,3.16,3.3a4.54,4.54,0,0,0,1.24,1.23,2,2,0,0,0,1.08.33h3A2,2,0,0,0,41,65.67a4.58,4.58,0,0,0,1.25-1.23c2.73-.91,3.13-2.54,3.15-3.3,0,0,.17-2.77.21-3.9a6.39,6.39,0,0,0,2.85-5.07c0-.85.55-1.7,1.53-3.13a17.59,17.59,0,0,0,3.71-10.72A15,15,0,0,0,38.42,23.57m8.34,23.31c-1.12,1.65-2.19,3.21-2.19,5.29a2.85,2.85,0,0,1-1.44,2.08H33.7a2.88,2.88,0,0,1-1.44-2.08c0-2.08-1.06-3.64-2.2-5.31-1.42-2.09-3-4.45-3-8.54a11.17,11.17,0,0,1,11.4-10.89A11.16,11.16,0,0,1,49.81,38.32c0,4.09-1.61,6.46-3.05,8.56"/><path class="cls-1" d="M38.42,20.68a1,1,0,0,0,1-1V16.83a1,1,0,1,0-1.93,0v2.89a1,1,0,0,0,1,1"/><path class="cls-1" d="M28.17,22.72a1,1,0,0,0,.84.48.94.94,0,0,0,.48-.13,1,1,0,0,0,.35-1.31L28.4,19.25a1,1,0,0,0-1.67,1Z"/><path class="cls-1" d="M22.6,28.29l-2.5-1.44a1,1,0,1,0-1,1.67L21.64,30a.94.94,0,0,0,.48.13,1,1,0,0,0,.48-1.8"/><path class="cls-1" d="M20.56,38.53a1,1,0,0,0-1-1H16.71a1,1,0,1,0,0,1.93H19.6a1,1,0,0,0,1-1"/><path class="cls-1" d="M21.64,47.11l-2.51,1.44a1,1,0,0,0,1,1.67l2.5-1.44A1,1,0,0,0,23,47.46a1,1,0,0,0-1.31-.35"/><path class="cls-1" d="M57.7,48.55l-2.51-1.44a1,1,0,0,0-1.31.35,1,1,0,0,0,.35,1.32l2.5,1.44a1,1,0,0,0,.49.13,1,1,0,0,0,.48-1.8"/><path class="cls-1" d="M60.12,37.57H57.23a1,1,0,0,0,0,1.93h2.89a1,1,0,1,0,0-1.93"/><path class="cls-1" d="M54.71,30.09a.91.91,0,0,0,.48-.13l2.51-1.44a1,1,0,0,0-1-1.67l-2.5,1.44a1,1,0,0,0,.48,1.8"/><path class="cls-1" d="M47.34,23.07a.94.94,0,0,0,.48.13,1,1,0,0,0,.84-.48l1.44-2.5a1,1,0,1,0-1.67-1L47,21.76a1,1,0,0,0,.35,1.31"/><path class="cls-1" d="M37.12,44.36c.12.85.53,1.09,1.3,1.09s1.17-.24,1.29-1.09l.91-6.88a11.19,11.19,0,0,0,.12-1.38V32.69a2.06,2.06,0,0,0-2.32-2.26,2.07,2.07,0,0,0-2.33,2.26V36.1a11.19,11.19,0,0,0,.12,1.38Z"/><path class="cls-1" d="M38.42,47.35a2.41,2.41,0,1,0,2.41,2.41,2.43,2.43,0,0,0-2.41-2.41"/></svg>