<svg id="Calque_1" data-name="Calque 1" xmlns="http://www.w3.org/2000/svg" viewBox="0 0 76 78"><defs><style>.cls-1{fill:#73fdff;}</style></defs><path class="cls-1" d="M21,54.08V20.7H48v28l5.14-4.24V18.13a2.57,2.57,0,0,0-2.57-2.57H18.45a2.57,2.57,0,0,0-2.57,2.57V56.65a2.57,2.57,0,0,0,2.57,2.57H40.86l-3.63-5.14Z"/><path class="cls-1" d="M60.51,43.17a1.28,1.28,0,0,0-1.7-.06L47,52.85l-7.84-4.71A1.28,1.28,0,0,0,37.48,50L46,62a1.3,1.3,0,0,0,1,.54h0a1.28,1.28,0,0,0,1-.52l12.6-17.18a1.29,1.29,0,0,0-.16-1.69"/><path class="cls-1" d="M42.2,24.55H26.8a2.57,2.57,0,1,0,0,5.13H42.2a2.57,2.57,0,1,0,0-5.13"/><path class="cls-1" d="M42.2,32.25H26.8a2.57,2.57,0,0,0,0,5.14H42.2a2.57,2.57,0,0,0,0-5.14"/><path class="cls-1" d="M42.2,40H26.8a2.57,2.57,0,1,0,0,5.13H42.2a2.57,2.57,0,1,0,0-5.13"/></svg>