<svg width="34" height="34" viewBox="0 0 34 34" fill="none" xmlns="http://www.w3.org/2000/svg">
<rect width="34" height="34" rx="5" fill="white"/>
<path d="M31.6876 9.03446C30.6015 9.51724 29.4327 9.84289 28.2062 9.98862C29.4585 9.23897 30.4186 8.05152 30.8714 6.63498C29.7001 7.33005 28.4035 7.83442 27.0224 8.10669C25.9171 6.92884 24.3416 6.19238 22.5982 6.19238C19.2512 6.19238 16.5375 8.90612 16.5375 12.2538C16.5375 12.7281 16.5908 13.1905 16.6946 13.6349C11.6569 13.3818 7.19021 10.9692 4.2006 7.30187C3.67884 8.19665 3.38018 9.23777 3.38018 10.3497C3.38018 12.4523 4.45008 14.3078 6.07653 15.3945C5.08339 15.3627 4.14842 15.0898 3.331 14.6359C3.3304 14.661 3.3304 14.6868 3.3304 14.7126C3.3304 17.6489 5.41983 20.0981 8.19294 20.6559C7.68438 20.7938 7.14883 20.8682 6.59589 20.8682C6.20487 20.8682 5.82524 20.8304 5.45522 20.759C6.22706 23.1669 8.46522 24.9199 11.1172 24.9685C9.04275 26.5943 6.42976 27.5634 3.58948 27.5634C3.10071 27.5634 2.61793 27.5347 2.14355 27.4783C4.82671 29.1989 8.01243 30.2016 11.435 30.2016C22.5845 30.2016 28.6806 20.9659 28.6806 12.956C28.6806 12.6934 28.6752 12.4313 28.6638 12.171C29.8477 11.3182 30.8756 10.2501 31.6876 9.03446Z" fill="#262626"/>
</svg>
